<mxfile host="app.diagrams.net" agent="Mozilla/5.0 (Macintosh; Intel Mac OS X 10_15_7) AppleWebKit/537.36 (KHTML, like Gecko) Chrome/138.0.0.0 Safari/537.36" version="27.2.0">
  <diagram name="페이지-1" id="Zj0yJO3OETrfns68AyeK">
    <mxGraphModel dx="3169" dy="1547" grid="1" gridSize="10" guides="1" tooltips="1" connect="1" arrows="1" fold="1" page="1" pageScale="1" pageWidth="827" pageHeight="1169" math="0" shadow="0">
      <root>
        <mxCell id="0" />
        <mxCell id="1" parent="0" />
        <mxCell id="CqBGsofp30_HtF1qE8fK-17" style="edgeStyle=orthogonalEdgeStyle;rounded=0;orthogonalLoop=1;jettySize=auto;html=1;exitX=0.5;exitY=1;exitDx=0;exitDy=0;entryX=0.5;entryY=0;entryDx=0;entryDy=0;" edge="1" parent="1" source="ucjn_RggkOX-qEULaFeo-13" target="CqBGsofp30_HtF1qE8fK-15">
          <mxGeometry relative="1" as="geometry" />
        </mxCell>
        <mxCell id="ucjn_RggkOX-qEULaFeo-13" value="프로그램 시작" style="rounded=1;whiteSpace=wrap;html=1;arcSize=50;" parent="1" vertex="1">
          <mxGeometry x="354" y="160" width="120" height="40" as="geometry" />
        </mxCell>
        <mxCell id="CqBGsofp30_HtF1qE8fK-40" style="edgeStyle=orthogonalEdgeStyle;rounded=0;orthogonalLoop=1;jettySize=auto;html=1;exitX=1;exitY=0.5;exitDx=0;exitDy=0;entryX=0.5;entryY=1;entryDx=0;entryDy=0;curved=1;" edge="1" parent="1" source="CqBGsofp30_HtF1qE8fK-1" target="CqBGsofp30_HtF1qE8fK-39">
          <mxGeometry relative="1" as="geometry" />
        </mxCell>
        <mxCell id="CqBGsofp30_HtF1qE8fK-1" value="공부시간 측정" style="rounded=1;whiteSpace=wrap;html=1;" vertex="1" parent="1">
          <mxGeometry x="280" y="1010" width="120" height="60" as="geometry" />
        </mxCell>
        <mxCell id="CqBGsofp30_HtF1qE8fK-21" style="edgeStyle=orthogonalEdgeStyle;rounded=0;orthogonalLoop=1;jettySize=auto;html=1;exitX=0.329;exitY=-0.006;exitDx=0;exitDy=0;entryX=0;entryY=0.5;entryDx=0;entryDy=0;curved=1;exitPerimeter=0;" edge="1" parent="1" source="CqBGsofp30_HtF1qE8fK-2" target="ucjn_RggkOX-qEULaFeo-1">
          <mxGeometry relative="1" as="geometry">
            <Array as="points">
              <mxPoint x="120" y="675" />
            </Array>
          </mxGeometry>
        </mxCell>
        <mxCell id="CqBGsofp30_HtF1qE8fK-22" value="대기 디스플레이 요청" style="edgeLabel;html=1;align=center;verticalAlign=middle;resizable=0;points=[];" vertex="1" connectable="0" parent="CqBGsofp30_HtF1qE8fK-21">
          <mxGeometry x="-0.0493" y="-59" relative="1" as="geometry">
            <mxPoint x="11" y="26" as="offset" />
          </mxGeometry>
        </mxCell>
        <mxCell id="CqBGsofp30_HtF1qE8fK-25" style="edgeStyle=orthogonalEdgeStyle;rounded=0;orthogonalLoop=1;jettySize=auto;html=1;exitX=1;exitY=0.5;exitDx=0;exitDy=0;entryX=0.5;entryY=1;entryDx=0;entryDy=0;" edge="1" parent="1" source="CqBGsofp30_HtF1qE8fK-2" target="CqBGsofp30_HtF1qE8fK-23">
          <mxGeometry relative="1" as="geometry" />
        </mxCell>
        <mxCell id="CqBGsofp30_HtF1qE8fK-2" value="대기" style="rounded=1;whiteSpace=wrap;html=1;" vertex="1" parent="1">
          <mxGeometry x="80" y="1040" width="120" height="60" as="geometry" />
        </mxCell>
        <mxCell id="CqBGsofp30_HtF1qE8fK-51" style="edgeStyle=orthogonalEdgeStyle;rounded=0;orthogonalLoop=1;jettySize=auto;html=1;exitX=0.5;exitY=0;exitDx=0;exitDy=0;entryX=0.5;entryY=1;entryDx=0;entryDy=0;curved=1;" edge="1" parent="1" source="CqBGsofp30_HtF1qE8fK-3" target="CqBGsofp30_HtF1qE8fK-50">
          <mxGeometry relative="1" as="geometry">
            <Array as="points">
              <mxPoint x="740" y="730" />
              <mxPoint x="640" y="730" />
            </Array>
          </mxGeometry>
        </mxCell>
        <mxCell id="CqBGsofp30_HtF1qE8fK-55" style="edgeStyle=orthogonalEdgeStyle;rounded=0;orthogonalLoop=1;jettySize=auto;html=1;exitX=0;exitY=0.25;exitDx=0;exitDy=0;entryX=0.5;entryY=1;entryDx=0;entryDy=0;" edge="1" parent="1" source="CqBGsofp30_HtF1qE8fK-3" target="CqBGsofp30_HtF1qE8fK-54">
          <mxGeometry relative="1" as="geometry" />
        </mxCell>
        <mxCell id="CqBGsofp30_HtF1qE8fK-3" value="일시정지" style="rounded=1;whiteSpace=wrap;html=1;" vertex="1" parent="1">
          <mxGeometry x="680" y="1040" width="120" height="60" as="geometry" />
        </mxCell>
        <mxCell id="CqBGsofp30_HtF1qE8fK-30" style="edgeStyle=orthogonalEdgeStyle;rounded=0;orthogonalLoop=1;jettySize=auto;html=1;exitX=0.5;exitY=1;exitDx=0;exitDy=0;curved=1;" edge="1" parent="1" source="CqBGsofp30_HtF1qE8fK-8" target="CqBGsofp30_HtF1qE8fK-1">
          <mxGeometry relative="1" as="geometry">
            <Array as="points">
              <mxPoint x="414" y="728" />
              <mxPoint x="340" y="728" />
            </Array>
          </mxGeometry>
        </mxCell>
        <mxCell id="CqBGsofp30_HtF1qE8fK-32" value="측정 중" style="edgeLabel;html=1;align=center;verticalAlign=middle;resizable=0;points=[];" vertex="1" connectable="0" parent="CqBGsofp30_HtF1qE8fK-30">
          <mxGeometry x="0.4176" y="2" relative="1" as="geometry">
            <mxPoint x="-8" as="offset" />
          </mxGeometry>
        </mxCell>
        <mxCell id="CqBGsofp30_HtF1qE8fK-8" value="현재 상태" style="rhombus;whiteSpace=wrap;html=1;rounded=1;" vertex="1" parent="1">
          <mxGeometry x="334" y="380" width="160" height="65" as="geometry" />
        </mxCell>
        <mxCell id="CqBGsofp30_HtF1qE8fK-10" style="edgeStyle=orthogonalEdgeStyle;rounded=0;orthogonalLoop=1;jettySize=auto;html=1;exitX=0;exitY=0.5;exitDx=0;exitDy=0;" edge="1" parent="1" source="CqBGsofp30_HtF1qE8fK-8">
          <mxGeometry relative="1" as="geometry">
            <mxPoint x="100" y="1042" as="targetPoint" />
            <Array as="points">
              <mxPoint x="100" y="413" />
              <mxPoint x="100" y="1042" />
            </Array>
          </mxGeometry>
        </mxCell>
        <mxCell id="CqBGsofp30_HtF1qE8fK-11" value="대기 중" style="edgeLabel;html=1;align=center;verticalAlign=middle;resizable=0;points=[];" vertex="1" connectable="0" parent="CqBGsofp30_HtF1qE8fK-10">
          <mxGeometry x="-0.6862" y="-1" relative="1" as="geometry">
            <mxPoint x="29" y="-22" as="offset" />
          </mxGeometry>
        </mxCell>
        <mxCell id="CqBGsofp30_HtF1qE8fK-18" style="edgeStyle=orthogonalEdgeStyle;rounded=0;orthogonalLoop=1;jettySize=auto;html=1;exitX=0.5;exitY=1;exitDx=0;exitDy=0;entryX=0.5;entryY=0;entryDx=0;entryDy=0;" edge="1" parent="1" source="CqBGsofp30_HtF1qE8fK-15" target="CqBGsofp30_HtF1qE8fK-8">
          <mxGeometry relative="1" as="geometry" />
        </mxCell>
        <mxCell id="CqBGsofp30_HtF1qE8fK-15" value="현재 상태 : 대기 중&lt;div&gt;현재 초 : 0.000&lt;/div&gt;" style="shape=parallelogram;perimeter=parallelogramPerimeter;whiteSpace=wrap;html=1;fixedSize=1;" vertex="1" parent="1">
          <mxGeometry x="334" y="250" width="160" height="60" as="geometry" />
        </mxCell>
        <mxCell id="CqBGsofp30_HtF1qE8fK-26" style="edgeStyle=orthogonalEdgeStyle;rounded=0;orthogonalLoop=1;jettySize=auto;html=1;exitX=1;exitY=0.5;exitDx=0;exitDy=0;entryX=0;entryY=0.5;entryDx=0;entryDy=0;curved=1;" edge="1" parent="1" source="CqBGsofp30_HtF1qE8fK-23" target="CqBGsofp30_HtF1qE8fK-1">
          <mxGeometry relative="1" as="geometry" />
        </mxCell>
        <mxCell id="CqBGsofp30_HtF1qE8fK-27" value="TRUE" style="edgeLabel;html=1;align=center;verticalAlign=middle;resizable=0;points=[];" vertex="1" connectable="0" parent="CqBGsofp30_HtF1qE8fK-26">
          <mxGeometry x="0.3336" y="7" relative="1" as="geometry">
            <mxPoint x="-4" y="-13" as="offset" />
          </mxGeometry>
        </mxCell>
        <mxCell id="CqBGsofp30_HtF1qE8fK-23" value="startBTN 입력" style="rhombus;whiteSpace=wrap;html=1;" vertex="1" parent="1">
          <mxGeometry x="180" y="780" width="140" height="60" as="geometry" />
        </mxCell>
        <mxCell id="CqBGsofp30_HtF1qE8fK-28" style="edgeStyle=orthogonalEdgeStyle;rounded=0;orthogonalLoop=1;jettySize=auto;html=1;exitX=0;exitY=0.5;exitDx=0;exitDy=0;entryX=0.669;entryY=0.019;entryDx=0;entryDy=0;entryPerimeter=0;curved=1;" edge="1" parent="1" source="CqBGsofp30_HtF1qE8fK-23" target="CqBGsofp30_HtF1qE8fK-2">
          <mxGeometry relative="1" as="geometry" />
        </mxCell>
        <mxCell id="CqBGsofp30_HtF1qE8fK-29" value="FALSE" style="edgeLabel;html=1;align=center;verticalAlign=middle;resizable=0;points=[];" vertex="1" connectable="0" parent="CqBGsofp30_HtF1qE8fK-28">
          <mxGeometry x="-0.587" y="8" relative="1" as="geometry">
            <mxPoint x="-3" y="17" as="offset" />
          </mxGeometry>
        </mxCell>
        <mxCell id="CqBGsofp30_HtF1qE8fK-34" value="매 초마다&lt;div&gt;공부시간 증가&lt;/div&gt;" style="shape=parallelogram;perimeter=parallelogramPerimeter;whiteSpace=wrap;html=1;fixedSize=1;" vertex="1" parent="1">
          <mxGeometry x="424" y="930" width="140" height="50" as="geometry" />
        </mxCell>
        <mxCell id="CqBGsofp30_HtF1qE8fK-37" style="edgeStyle=orthogonalEdgeStyle;rounded=0;orthogonalLoop=1;jettySize=auto;html=1;exitX=0.25;exitY=0;exitDx=0;exitDy=0;entryX=0.432;entryY=0.946;entryDx=0;entryDy=0;entryPerimeter=0;" edge="1" parent="1" source="CqBGsofp30_HtF1qE8fK-34" target="ucjn_RggkOX-qEULaFeo-1">
          <mxGeometry relative="1" as="geometry" />
        </mxCell>
        <mxCell id="CqBGsofp30_HtF1qE8fK-38" value="초 반영 요청" style="edgeLabel;html=1;align=center;verticalAlign=middle;resizable=0;points=[];" vertex="1" connectable="0" parent="CqBGsofp30_HtF1qE8fK-37">
          <mxGeometry x="0.1612" y="-2" relative="1" as="geometry">
            <mxPoint as="offset" />
          </mxGeometry>
        </mxCell>
        <mxCell id="CqBGsofp30_HtF1qE8fK-59" value="" style="edgeStyle=orthogonalEdgeStyle;rounded=0;orthogonalLoop=1;jettySize=auto;html=1;" edge="1" parent="1" source="CqBGsofp30_HtF1qE8fK-39" target="CqBGsofp30_HtF1qE8fK-58">
          <mxGeometry relative="1" as="geometry" />
        </mxCell>
        <mxCell id="CqBGsofp30_HtF1qE8fK-39" value="startBTN 입력" style="rhombus;whiteSpace=wrap;html=1;" vertex="1" parent="1">
          <mxGeometry x="550" y="860" width="140" height="60" as="geometry" />
        </mxCell>
        <mxCell id="CqBGsofp30_HtF1qE8fK-41" style="edgeStyle=orthogonalEdgeStyle;rounded=0;orthogonalLoop=1;jettySize=auto;html=1;exitX=0;exitY=0.5;exitDx=0;exitDy=0;entryX=0.663;entryY=-0.032;entryDx=0;entryDy=0;entryPerimeter=0;curved=1;" edge="1" parent="1" source="CqBGsofp30_HtF1qE8fK-39" target="CqBGsofp30_HtF1qE8fK-1">
          <mxGeometry relative="1" as="geometry" />
        </mxCell>
        <mxCell id="CqBGsofp30_HtF1qE8fK-42" value="FALSE" style="edgeLabel;html=1;align=center;verticalAlign=middle;resizable=0;points=[];" vertex="1" connectable="0" parent="CqBGsofp30_HtF1qE8fK-41">
          <mxGeometry x="-0.8899" y="-3" relative="1" as="geometry">
            <mxPoint y="-17" as="offset" />
          </mxGeometry>
        </mxCell>
        <mxCell id="CqBGsofp30_HtF1qE8fK-44" value="" style="group" vertex="1" connectable="0" parent="1">
          <mxGeometry x="444" y="479.95" width="156" height="95.00000000000006" as="geometry" />
        </mxCell>
        <mxCell id="ucjn_RggkOX-qEULaFeo-21" style="edgeStyle=orthogonalEdgeStyle;rounded=0;orthogonalLoop=1;jettySize=auto;html=1;exitX=0.75;exitY=0;exitDx=0;exitDy=0;curved=1;entryX=1;entryY=0.5;entryDx=0;entryDy=0;" parent="CqBGsofp30_HtF1qE8fK-44" source="ucjn_RggkOX-qEULaFeo-1" target="ucjn_RggkOX-qEULaFeo-1" edge="1">
          <mxGeometry relative="1" as="geometry">
            <mxPoint x="90" y="-20" as="targetPoint" />
            <Array as="points">
              <mxPoint x="90" />
              <mxPoint x="156" />
              <mxPoint x="156" y="65.00000000000006" />
            </Array>
          </mxGeometry>
        </mxCell>
        <mxCell id="ucjn_RggkOX-qEULaFeo-22" value="디스플레이 업데이트" style="edgeLabel;html=1;align=center;verticalAlign=middle;resizable=0;points=[];" parent="ucjn_RggkOX-qEULaFeo-21" vertex="1" connectable="0">
          <mxGeometry x="0.1677" y="-1" relative="1" as="geometry">
            <mxPoint x="-9" y="-37" as="offset" />
          </mxGeometry>
        </mxCell>
        <mxCell id="ucjn_RggkOX-qEULaFeo-1" value="디스플레이 표시" style="rounded=1;whiteSpace=wrap;html=1;" parent="CqBGsofp30_HtF1qE8fK-44" vertex="1">
          <mxGeometry y="35.00000000000006" width="120" height="60" as="geometry" />
        </mxCell>
        <mxCell id="CqBGsofp30_HtF1qE8fK-45" style="edgeStyle=orthogonalEdgeStyle;rounded=0;orthogonalLoop=1;jettySize=auto;html=1;exitX=1;exitY=0.25;exitDx=0;exitDy=0;entryX=0.433;entryY=1.066;entryDx=0;entryDy=0;entryPerimeter=0;curved=1;" edge="1" parent="1" source="CqBGsofp30_HtF1qE8fK-1" target="CqBGsofp30_HtF1qE8fK-34">
          <mxGeometry relative="1" as="geometry" />
        </mxCell>
        <mxCell id="CqBGsofp30_HtF1qE8fK-47" style="edgeStyle=orthogonalEdgeStyle;rounded=0;orthogonalLoop=1;jettySize=auto;html=1;exitX=0.5;exitY=0;exitDx=0;exitDy=0;entryX=1;entryY=1;entryDx=0;entryDy=0;" edge="1" parent="1" source="ucjn_RggkOX-qEULaFeo-1" target="CqBGsofp30_HtF1qE8fK-8">
          <mxGeometry relative="1" as="geometry" />
        </mxCell>
        <mxCell id="CqBGsofp30_HtF1qE8fK-48" style="edgeStyle=orthogonalEdgeStyle;rounded=0;orthogonalLoop=1;jettySize=auto;html=1;exitX=1;exitY=0.5;exitDx=0;exitDy=0;entryX=0.873;entryY=0.003;entryDx=0;entryDy=0;entryPerimeter=0;" edge="1" parent="1" source="CqBGsofp30_HtF1qE8fK-8" target="CqBGsofp30_HtF1qE8fK-3">
          <mxGeometry relative="1" as="geometry" />
        </mxCell>
        <mxCell id="CqBGsofp30_HtF1qE8fK-49" value="일시정지" style="edgeLabel;html=1;align=center;verticalAlign=middle;resizable=0;points=[];" vertex="1" connectable="0" parent="CqBGsofp30_HtF1qE8fK-48">
          <mxGeometry x="-0.5158" y="1" relative="1" as="geometry">
            <mxPoint as="offset" />
          </mxGeometry>
        </mxCell>
        <mxCell id="CqBGsofp30_HtF1qE8fK-52" style="edgeStyle=orthogonalEdgeStyle;rounded=0;orthogonalLoop=1;jettySize=auto;html=1;exitX=1;exitY=0.5;exitDx=0;exitDy=0;entryX=0.663;entryY=0.02;entryDx=0;entryDy=0;entryPerimeter=0;curved=1;" edge="1" parent="1" source="CqBGsofp30_HtF1qE8fK-50" target="CqBGsofp30_HtF1qE8fK-3">
          <mxGeometry relative="1" as="geometry">
            <mxPoint x="760" y="1030" as="targetPoint" />
          </mxGeometry>
        </mxCell>
        <mxCell id="CqBGsofp30_HtF1qE8fK-53" value="FALSE" style="edgeLabel;html=1;align=center;verticalAlign=middle;resizable=0;points=[];" vertex="1" connectable="0" parent="CqBGsofp30_HtF1qE8fK-52">
          <mxGeometry x="-0.9314" y="1" relative="1" as="geometry">
            <mxPoint x="16" y="1" as="offset" />
          </mxGeometry>
        </mxCell>
        <mxCell id="CqBGsofp30_HtF1qE8fK-50" value="resetBTN 입력" style="rhombus;whiteSpace=wrap;html=1;" vertex="1" parent="1">
          <mxGeometry x="590" y="555" width="140" height="60" as="geometry" />
        </mxCell>
        <mxCell id="CqBGsofp30_HtF1qE8fK-54" value="startBTN 입력" style="rhombus;whiteSpace=wrap;html=1;" vertex="1" parent="1">
          <mxGeometry x="570" y="760" width="140" height="60" as="geometry" />
        </mxCell>
        <mxCell id="CqBGsofp30_HtF1qE8fK-57" style="edgeStyle=orthogonalEdgeStyle;rounded=0;orthogonalLoop=1;jettySize=auto;html=1;exitX=0;exitY=0.5;exitDx=0;exitDy=0;entryX=0.812;entryY=-0.032;entryDx=0;entryDy=0;entryPerimeter=0;curved=1;" edge="1" parent="1" source="CqBGsofp30_HtF1qE8fK-54" target="CqBGsofp30_HtF1qE8fK-1">
          <mxGeometry relative="1" as="geometry" />
        </mxCell>
        <mxCell id="CqBGsofp30_HtF1qE8fK-58" value="공부시간&lt;div&gt;정지&lt;/div&gt;" style="shape=parallelogram;perimeter=parallelogramPerimeter;whiteSpace=wrap;html=1;fixedSize=1;" vertex="1" parent="1">
          <mxGeometry x="650" y="950" width="90" height="40" as="geometry" />
        </mxCell>
      </root>
    </mxGraphModel>
  </diagram>
</mxfile>
